<svg width="202" height="98" viewBox="0 0 202 98" fill="none" xmlns="http://www.w3.org/2000/svg">
<g clip-path="url(#clip0_1_111)">
<path d="M194.64 61.2802H190.73V60.1702H194.46V59.2102H190.73V58.1802H194.58V57.1502H189.22V62.3202H194.64V61.2902V61.2802ZM198.25 69.3902C197.17 69.3902 196.35 68.9702 195.91 68.3702L194.83 69.1002C195.38 69.9202 196.6 70.4302 198.17 70.4302C200.09 70.4302 201.19 69.7902 201.19 68.6402C201.19 67.6902 200.58 67.2602 199.12 67.1202L197.66 66.9702C196.98 66.9002 196.76 66.7802 196.76 66.4702C196.76 66.1102 197.2 65.9202 198.02 65.9202C199.04 65.9202 199.8 66.2302 200.19 66.7402L201.15 65.9602C200.48 65.2302 199.44 64.8902 198.1 64.8902C196.28 64.8902 195.25 65.5002 195.25 66.5302C195.25 67.4802 195.89 67.9502 197.18 68.0902L198.81 68.2602C199.44 68.3302 199.66 68.4602 199.66 68.7802C199.66 69.1902 199.21 69.3802 198.25 69.3802V69.3902ZM5.16 64.5202H12.21C16.88 64.5202 19.89 62.0402 19.89 58.1602C19.89 54.2802 17.06 52.1302 12.31 52.1302H0V70.2602H5.16V64.5202ZM5.16 55.6102H11.06C13.23 55.6102 14.46 56.5502 14.46 58.2902C14.46 60.0302 13.18 61.0502 11.04 61.0502H5.17V55.6102H5.16ZM122.96 55.7602V52.1402H104.65V70.2702H123.13V66.6502H109.8V62.7702H122.51V59.4002H109.8V55.7702H122.95L122.96 55.7602ZM186.46 69.1002H182.86V65.0802H181.35V70.2502H186.46V69.1002ZM187.12 67.6702C187.12 69.3402 188.52 70.4402 190.68 70.4402C192.84 70.4402 194.24 69.3602 194.24 67.6702C194.24 65.9802 192.83 64.9002 190.68 64.9002C188.53 64.9002 187.12 65.9802 187.12 67.6702ZM192.64 67.6702C192.64 68.6702 191.85 69.3402 190.68 69.3402C189.51 69.3402 188.71 68.6602 188.71 67.6702C188.71 66.6802 189.5 66.0002 190.68 66.0002C191.86 66.0002 192.64 66.6702 192.64 67.6702ZM187.93 59.6402C187.93 58.0202 186.68 57.1402 184.73 57.1402H181.36V62.3102H184.7C186.61 62.3102 187.93 61.2502 187.93 59.6402ZM182.87 61.3202V58.1502H184.5C185.58 58.1502 186.33 58.6702 186.33 59.6802C186.33 60.6902 185.64 61.3302 184.5 61.3302H182.86L182.87 61.3202ZM99.03 11.6802C106.55 13.7602 113.47 14.4602 119.38 14.4602C123.15 14.4602 126.51 14.1702 129.35 13.7802V4.38016C123.49 5.37016 113.7 6.03016 102.28 2.87016C89.96 -0.539837 79.24 -0.239837 71.97 0.770163V10.1802C77.83 9.19016 87.62 8.53016 99.04 11.6902L99.03 11.6802ZM99.03 32.4802C106.55 34.5602 113.47 35.2602 119.38 35.2602C123.15 35.2602 126.51 34.9702 129.35 34.5802V25.1702C123.49 26.1602 113.7 26.8202 102.28 23.6602C89.96 20.2502 79.24 20.5502 71.97 21.5602V30.9702C77.83 29.9802 87.62 29.3202 99.04 32.4802H99.03ZM71.03 89.6102C70.75 90.3802 70.49 91.0102 70.39 91.6002H70.34C70.24 91.0102 69.98 90.3702 69.73 89.6602L65.06 78.6802H57.35V96.8102H61.87V85.3002C61.87 84.2302 61.84 83.0802 61.67 82.1902H61.8C62 82.9302 62.34 84.0502 62.77 85.1502L67.82 96.8202H72.67L77.88 85.1302C78.34 84.1102 78.82 82.7002 78.98 82.1902H79.08C78.9 83.1902 78.82 84.3602 78.82 85.3002V96.8102H83.57V78.6802H75.66L71.04 89.6102H71.03ZM144.97 63.2702C148.01 62.2702 149.03 59.9002 149.03 57.8802C149.03 55.1202 147.34 52.1402 141.52 52.1402H129.16V70.2702H134.32V63.8602H139.55L143.86 70.2702H149.68L144.96 63.2702H144.97ZM140.34 60.5602H134.32V55.5802H140.34C142.82 55.5802 143.56 56.7802 143.56 58.0302C143.56 59.2802 142.82 60.5602 140.34 60.5602ZM161.36 78.0402C153.98 78.0402 149.21 81.8402 149.21 87.7402C149.21 93.6402 153.98 97.4402 161.36 97.4402C168.74 97.4402 173.51 93.6402 173.51 87.7402C173.51 81.8402 168.71 78.0402 161.36 78.0402ZM161.36 93.6202C157.33 93.6202 154.65 91.2502 154.65 87.7502C154.65 84.2502 157.33 81.8802 161.36 81.8802C165.39 81.8802 168.05 84.2302 168.05 87.7502C168.05 91.2702 165.37 93.6202 161.36 93.6202ZM194.24 85.8302L189.26 85.3202C186.94 85.0902 186.2 84.6602 186.2 83.5602C186.2 82.3102 187.71 81.6502 190.51 81.6502C193.98 81.6502 196.59 82.7202 197.91 84.5302L201.18 81.8002C198.91 79.2502 195.33 78.0502 190.76 78.0502C184.56 78.0502 181.03 80.1902 181.03 83.7902C181.03 87.1302 183.2 88.7702 187.62 89.2502L193.19 89.8602C195.33 90.0902 196.1 90.5502 196.1 91.6702C196.1 93.1002 194.57 93.7902 191.27 93.7902C187.57 93.7902 184.79 92.3302 183.28 90.2202L179.6 92.8002C181.46 95.6602 185.65 97.4502 191.01 97.4502C197.57 97.4502 201.3 95.2002 201.3 91.1702C201.3 87.8302 199.23 86.3402 194.23 85.8302H194.24ZM162.12 52.1302L153.08 70.2602H158.65L160.31 66.6102H170.39L172.05 70.2602H177.62L168.58 52.1302H162.12ZM161.84 63.2902L163.63 59.3802C164.52 57.5202 164.98 56.4902 165.32 55.1902H165.4C165.73 56.4902 166.19 57.5102 167.09 59.3802L168.88 63.2902H161.86H161.84ZM141.8 84.4302C141.8 81.6702 140.12 78.6902 134.29 78.6902H121.93V96.8202H127.09V90.4102H132.32L136.63 96.8202H142.45L137.73 89.8202C140.77 88.8202 141.79 86.4502 141.79 84.4302H141.8ZM133.12 87.1102H127.1V82.1302H133.12C135.6 82.1302 136.34 83.3302 136.34 84.5802C136.34 85.8302 135.6 87.1102 133.12 87.1102ZM99.01 89.3002V89.2102C100.29 88.9602 102.12 88.8302 104.21 89.3602C105.83 89.7702 107.32 89.8502 108.6 89.7702C109.89 89.6902 110.95 89.4502 111.7 89.2202V85.7602C110.83 86.0802 108.18 86.8702 104.91 86.0502C102.59 85.4702 100.54 85.5602 99.01 85.8202V82.3102H112.16V78.6902H93.85V96.8202H112.33V93.2002H99V89.3202L99.01 89.3002ZM34.45 89.3002V89.2102C35.73 88.9602 37.56 88.8302 39.65 89.3602C41.27 89.7702 42.76 89.8502 44.04 89.7702C45.33 89.6902 46.39 89.4502 47.14 89.2202V85.7602C46.27 86.0802 43.62 86.8702 40.35 86.0502C38.03 85.4702 35.98 85.5602 34.45 85.8202V82.3102H47.6V78.6902H29.29V96.8202H47.77V93.2002H34.44V89.3202L34.45 89.3002ZM38.99 70.2602H44.56L35.52 52.1302H29.06L20.02 70.2602H25.59L27.25 66.6102H37.33L38.99 70.2602ZM28.77 63.2902L30.56 59.3802C31.45 57.5202 31.91 56.4902 32.25 55.1902H32.33C32.66 56.4902 33.12 57.5102 34.01 59.3802L35.8 63.2902H28.78H28.77ZM19.86 84.4302C19.86 81.6702 18.17 78.6902 12.35 78.6902H0V96.8202H5.16V90.4102H10.39L14.7 96.8202H20.52L15.8 89.8202C18.84 88.8202 19.86 86.4502 19.86 84.4302ZM11.18 87.1102H5.16V82.1302H11.18C13.66 82.1302 14.4 83.3302 14.4 84.5802C14.4 85.8302 13.66 87.1102 11.18 87.1102ZM93.19 70.2602H97.94V52.1302H90.03L85.41 63.0602C85.13 63.8302 84.87 64.4602 84.77 65.0502H84.72C84.62 64.4602 84.36 63.8202 84.11 63.1102L79.44 52.1302H71.73V70.2602H76.25V58.7502C76.25 57.6802 76.22 56.5302 76.05 55.6402H76.18C76.38 56.3802 76.72 57.5002 77.15 58.6002L82.2 70.2702H87.05L92.26 58.5802C92.72 57.5602 93.2 56.1502 93.36 55.6402H93.46C93.28 56.6402 93.2 57.8102 93.2 58.7502V70.2602H93.19ZM66.64 66.2302H54.36V52.1402H49.2V70.2702H66.64V66.2402V66.2302Z" fill="#2B303B"/>
</g>
<defs>
<clipPath id="clip0_1_111">
<rect width="201.31" height="97.36" fill="white" transform="translate(0 0.0903931)"/>
</clipPath>
</defs>
</svg>
