<?xml version="1.0" encoding="UTF-8"?>
<svg id="Layer_2" data-name="Layer 2" xmlns="http://www.w3.org/2000/svg" viewBox="0 0 697.94 101.68">
  <defs>
    <style>
      .cls-1 {
        fill: #e5ded3;
      }
    </style>
  </defs>
  <g id="Capa_1" data-name="Capa 1">
    <g>
      <path class="cls-1" d="M19.45,100.28H0V1.4h36.73c22.55,0,35.17,13.75,35.17,32.36s-13.46,33.12-35.05,33.12h-17.4v33.4ZM34.89,49.82c11.04,0,17.44-6.01,17.44-15.81s-6.57-15.62-17.44-15.62h-15.44v31.43h15.44Z"/>
      <path class="cls-1" d="M77.57,50.81C77.57,21.16,99.87,0,128.64,0s50.88,21.2,50.88,50.72-21.96,50.96-51,50.96-50.96-21.57-50.96-50.86ZM159.44,50.85c0-19.66-13.05-33.52-30.91-33.52s-30.92,13.81-30.92,33.52,12.96,33.56,30.92,33.56,30.91-13.99,30.91-33.56Z"/>
      <path class="cls-1" d="M190.27,1.4h36.28c21.76,0,34.97,13.03,34.97,31.23,0,13.53-7.24,24.06-19.22,28.84l23.57,38.8h-23.24l-20.33-36h-12.59v36h-19.43V1.4ZM224.56,47.27c10.78,0,17.23-5.17,17.23-14.37s-7.04-14.51-17.23-14.51h-14.85v28.88h14.85Z"/>
      <path class="cls-1" d="M344.64,18.65h-28.87v81.62h-19.83V18.65h-28.83V1.4h77.53v17.25Z"/>
      <path class="cls-1" d="M352.7,1.4h19.66v81.73h42.59v17.15h-62.25V1.4Z"/>
      <path class="cls-1" d="M484.72,77.04h-36.34l-7.62,23.24h-20.35L455.63,1.4h22.57l35.68,98.88h-21.4l-7.76-23.24ZM479.47,60.65l-13.05-38.76-12.88,38.76h25.93Z"/>
      <path class="cls-1" d="M539.05,100.28h-18.85V1.4h21.06l41.67,67.87-.3-67.87h18.77v98.88h-21.42l-41.23-67.09.3,67.09Z"/>
      <path class="cls-1" d="M615.3,100.28V1.4h34.93c31.03,0,47.71,21.77,47.71,49.45s-17.21,49.42-47.84,49.42h-34.8ZM647.84,83.09c20.46,0,30.32-9.9,30.32-32.06s-10.58-32.42-29.98-32.42h-13.22v64.49h12.88Z"/>
    </g>
  </g>
</svg>