<svg width="265" height="129" viewBox="0 0 265 129" fill="none" xmlns="http://www.w3.org/2000/svg">
<g clip-path="url(#clip0_5_239)">
<path d="M161.63 73.8496V69.0796H137.57V92.9096H161.87V88.1396H144.35V83.0396H161.06V78.6096H144.35V73.8396H161.63V73.8496ZM6.78 85.3596H16.04C22.18 85.3596 26.14 82.0996 26.14 76.9996C26.14 71.8996 22.42 69.0796 16.17 69.0796H0V92.9096H6.78V85.3596ZM6.78 73.6496H14.53C17.38 73.6496 18.99 74.8896 18.99 77.1696C18.99 79.4496 17.31 80.7896 14.49 80.7896H6.77V73.6396L6.78 73.6496ZM130.18 43.2396C140.06 45.9796 149.16 46.8896 156.93 46.8896C161.89 46.8896 166.3 46.5096 170.03 45.9996V33.6296C162.32 34.9296 149.45 35.7996 134.45 31.6496C118.25 27.1696 104.17 27.5596 94.6 28.8896V41.2596C102.31 39.9596 115.18 39.0896 130.18 43.2396ZM255.86 81.1096H250.73V79.6596H255.63V78.3996H250.73V77.0396H255.79V75.6796H248.74V82.4696H255.86V81.1096ZM260.6 91.7696C259.17 91.7696 258.1 91.2196 257.52 90.4296L256.1 91.3996C256.82 92.4696 258.43 93.1396 260.5 93.1396C263.03 93.1396 264.46 92.2996 264.46 90.7896C264.46 89.5396 263.66 88.9796 261.74 88.7896L259.82 88.5996C258.93 88.5096 258.64 88.3496 258.64 87.9396C258.64 87.4696 259.22 87.2196 260.3 87.2196C261.64 87.2196 262.64 87.6196 263.15 88.2996L264.41 87.2796C263.53 86.3196 262.16 85.8696 260.4 85.8696C258.01 85.8696 256.65 86.6696 256.65 88.0196C256.65 89.2696 257.49 89.8896 259.19 90.0696L261.33 90.2996C262.16 90.3896 262.45 90.5596 262.45 90.9796C262.45 91.5196 261.86 91.7696 260.59 91.7696H260.6ZM130.18 15.9096C140.06 18.6496 149.16 19.5596 156.93 19.5596C161.89 19.5596 166.3 19.1796 170.03 18.6696V6.29962C162.32 7.59962 149.45 8.46962 134.45 4.31962C118.25 -0.160377 104.17 0.239623 94.6 1.55962V13.9296C102.31 12.6296 115.18 11.7596 130.18 15.9096ZM247.04 78.9496C247.04 76.8296 245.4 75.6696 242.83 75.6696H238.4V82.4596H242.8C245.31 82.4596 247.05 81.0596 247.05 78.9496H247.04ZM240.38 81.1496V76.9796H242.52C243.95 76.9796 244.93 77.6596 244.93 78.9896C244.93 80.3196 244.03 81.1496 242.53 81.1496H240.38ZM245.11 91.3896H240.38V86.1096H238.39V92.8996H245.11V91.3896ZM245.97 89.4996C245.97 91.6996 247.81 93.1396 250.65 93.1396C253.49 93.1396 255.33 91.7096 255.33 89.4996C255.33 87.2896 253.48 85.8596 250.65 85.8596C247.82 85.8596 245.97 87.2896 245.97 89.4996ZM253.22 89.4996C253.22 90.8196 252.19 91.6996 250.64 91.6996C249.09 91.6996 248.05 90.8096 248.05 89.4996C248.05 88.1896 249.08 87.2996 250.64 87.2996C252.2 87.2996 253.22 88.1796 253.22 89.4996ZM212.11 103.14C202.41 103.14 196.14 108.14 196.14 115.89C196.14 123.64 202.42 128.64 212.11 128.64C221.8 128.64 228.08 123.64 228.08 115.89C228.08 108.14 221.77 103.14 212.11 103.14ZM212.11 123.61C206.81 123.61 203.28 120.49 203.28 115.89C203.28 111.29 206.8 108.17 212.11 108.17C217.42 108.17 220.9 111.26 220.9 115.89C220.9 120.52 217.38 123.61 212.11 123.61ZM130.15 117.94V117.82C131.83 117.49 134.24 117.32 136.99 118.01C139.12 118.55 141.08 118.65 142.76 118.55C144.45 118.44 145.85 118.13 146.83 117.83V113.28C145.68 113.7 142.2 114.74 137.91 113.66C134.86 112.89 132.16 113.01 130.15 113.36V108.75H147.43V103.98H123.37V127.81H147.67V123.04H130.15V117.94ZM186.4 111.53C186.4 107.91 184.19 103.98 176.53 103.98H160.29V127.81H167.07V119.39H173.95L179.62 127.81H187.27L181.06 118.61C185.05 117.3 186.4 114.18 186.4 111.53ZM174.99 115.05H167.07V108.51H174.99C178.25 108.51 179.22 110.09 179.22 111.73C179.22 113.37 178.25 115.05 174.99 115.05ZM190.56 83.7196C194.55 82.4096 195.9 79.2896 195.9 76.6396C195.9 73.0196 193.69 69.0896 186.03 69.0896H169.79V92.9196H176.57V84.4996H183.45L189.12 92.9196H196.77L190.56 83.7196ZM184.49 80.1596H176.57V73.6196H184.49C187.75 73.6196 188.72 75.1996 188.72 76.8396C188.72 78.4796 187.75 80.1596 184.49 80.1596ZM213.11 69.0796L201.23 92.9096H208.55L210.73 88.1096H223.99L226.17 92.9096H233.49L221.61 69.0796H213.12H213.11ZM212.74 83.7496L215.09 78.6196C216.26 76.1696 216.87 74.8296 217.3 73.1196H217.4C217.84 74.8296 218.44 76.1696 219.62 78.6196L221.97 83.7496H212.74ZM255.33 113.38L248.79 112.71C245.74 112.41 244.76 111.84 244.76 110.39C244.76 108.75 246.74 107.87 250.43 107.87C254.99 107.87 258.42 109.28 260.16 111.66L264.46 108.07C261.47 104.71 256.77 103.14 250.77 103.14C242.62 103.14 237.98 105.96 237.98 110.69C237.98 115.09 240.83 117.23 246.64 117.87L253.96 118.68C256.78 118.98 257.79 119.59 257.79 121.06C257.79 122.94 255.78 123.85 251.45 123.85C246.58 123.85 242.93 121.94 240.95 119.15L236.12 122.54C238.57 126.3 244.07 128.65 251.12 128.65C259.74 128.65 264.64 125.7 264.64 120.39C264.64 115.99 261.92 114.05 255.34 113.38H255.33ZM93.37 118.34C93 119.35 92.67 120.19 92.53 120.96H92.46C92.33 120.19 91.99 119.35 91.65 118.41L85.51 103.98H75.38V127.81H81.32V112.67C81.32 111.26 81.29 109.75 81.05 108.58H81.22C81.49 109.55 81.92 111.03 82.5 112.47L89.14 127.81H95.52L102.37 112.44C102.97 111.1 103.61 109.25 103.81 108.58H103.94C103.71 109.89 103.6 111.43 103.6 112.67V127.81H109.84V103.98H99.44L93.37 118.34ZM122.5 92.9096H128.74V69.0796H118.34L112.27 83.4396C111.9 84.4496 111.57 85.2896 111.43 86.0596H111.36C111.23 85.2896 110.89 84.4496 110.55 83.5096L104.41 69.0796H94.28V92.9096H100.22V77.7696C100.22 76.3596 100.19 74.8496 99.95 73.6796H100.12C100.39 74.6496 100.82 76.1296 101.4 77.5696L108.04 92.9096H114.42L121.27 77.5396C121.87 76.1996 122.51 74.3496 122.71 73.6796H122.84C122.61 74.9896 122.5 76.5296 122.5 77.7696V92.9096ZM51.25 92.9096H58.57L46.69 69.0796H38.2L26.32 92.9096H33.64L35.82 88.1096H49.08L51.26 92.9096H51.25ZM37.82 83.7496L40.17 78.6196C41.34 76.1696 41.95 74.8296 42.39 73.1196H42.49C42.93 74.8296 43.53 76.1696 44.71 78.6196L47.06 83.7496H37.83H37.82ZM45.28 117.94V117.82C46.96 117.49 49.37 117.32 52.12 118.01C54.25 118.55 56.21 118.65 57.89 118.55C59.58 118.44 60.98 118.13 61.96 117.83V113.28C60.81 113.7 57.33 114.74 53.04 113.66C49.99 112.89 47.29 113.01 45.28 113.36V108.75H62.56V103.98H38.5V127.81H62.8V123.04H45.28V117.94ZM87.59 87.6096H71.45V69.0896H64.67V92.9196H87.59V87.6196V87.6096ZM26.11 111.53C26.11 107.91 23.89 103.98 16.24 103.98H0V127.81H6.78V119.39H13.66L19.33 127.81H26.98L20.77 118.61C24.76 117.3 26.11 114.18 26.11 111.53ZM14.7 115.05H6.78V108.51H14.7C17.96 108.51 18.93 110.09 18.93 111.73C18.93 113.37 17.96 115.05 14.7 115.05Z" fill="#E5DED3"/>
</g>
<defs>
<clipPath id="clip0_5_239">
<rect width="264.63" height="127.98" fill="white" transform="translate(0 0.669922)"/>
</clipPath>
</defs>
</svg>
